{"title":"R.I.P.D.2013.Xvid.CAMRIP-RUTOR","uid":8732060,"size":1469460833,"categoryP":"video","categoryS":"movies","magnet":"?xt=urn:btih:045f33498dd78ceca6eee99766824695ee0c6c22&amp;dn=R.I.P.D.2013.Xvid.CAMRIP-RUTOR&amp;tr=udp%3A%2F%2Ftracker.openbittorrent.com%3A80&amp;tr=udp%3A%2F%2Fopen.demonii.com%3A1337&amp;tr=udp%3A%2F%2Ftracker.coppersurfer.tk%3A6969&amp;tr=udp%3A%2F%2Fexodus.desync.com%3A6969","seeders":3,"leechers":0,"uploader":"xxxlavalxxx","files":-1,"time":1374622388,"description":" &lt;a href=&quot;http://www.imdb.com/title/tt0790736/&quot; rel=&quot;nofollow&quot; target=&quot;_NEW&quot;&gt;http://www.imdb.com/title/tt0790736/&lt;/a&gt;\n\n\nA recently slain cop joins a team of undead police officers working for the Rest in Peace Department and tries to find the man who murdered him. \n\n\n\nDirector:\n Robert Schwentke \n\nWriters:\n Phil Hay (screenplay), Matt Manfredi (screenplay) \n\nStars:\n Jeff Bridges, Ryan Reynolds, Kevin Bacon\n\nGenres:\n  Action |  Comedy |  Crime |  Fantasy \n\nCountry:\n USA \n\n\n\nFormat                                   : AVI\nFormat/Info                              : Audio Video Interleave\nFile size                                : 1.37 GiB\nDuration                                 : 1h 22mn\nOverall bit rate                         : 2 369 Kbps\nWriting application                      : VirtualDubMod 1.5.10.3 | www.virtualdub-fr.org || (build 2550/release)\nWriting library                          : VirtualDubMod build 2550/release\n\nVideo\nID                                       : 0\nFormat                                   : MPEG-4 Visual\nFormat profile                           : Advanced Simple@L5\nFormat settings, BVOP                    : 2\nFormat settings, QPel                    : No\nFormat settings, GMC                     : No warppoints\nFormat settings, Matrix                  : Default (MPEG)\nCodec ID                                 : XVID\nCodec ID/Hint                            : XviD\nDuration                                 : 1h 22mn\nBit rate                                 : 2 037 Kbps\nWidth                                    : 720 pixels\nHeight                                   : 304 pixels\nDisplay aspect ratio                     : 2.35:1\nFrame rate                               : 29.970 fps\nColor space                              : YUV\nChroma subsampling                       : 4:2:0\nBit depth                                : 8 bits\nScan type                                : Progressive\nCompression mode                         : Lossy\nBits/(Pixel*Frame)                       : 0.311\nStream size                              : 1.18 GiB (86%)\nWriting library                          : XviD 1.2.1 (UTC 2008-12-04)\n\nAudio\nID                                       : 1\nFormat                                   : AC-3\nFormat/Info                              : Audio Coding 3\nMode extension                           : CM (complete main)\nFormat settings, Endianness              : Big\nCodec ID                                 : 2000\nDuration                                 : 1h 22mn\nBit rate mode                            : Constant\nBit rate                                 : 320 Kbps\nChannel(s)                               : 2 channels\nChannel positions                        : Front: L R\nSampling rate                            : 44.1 KHz\nBit depth                                : 16 bits\nCompression mode                         : Lossy\nStream size                              : 189 MiB (14%)\nAlignment                                : Split accross interleaves\nInterleave, duration                     : 33 ms (1.00 video frame)\nInterleave, preload duration             : 500 ms\n\n\n\nscreens\n\n\n    &lt;a href=&quot;\thttp://addpix.net/viewer.php?file=57638706828854332731.jpg&quot; rel=&quot;nofollow&quot; target=&quot;_NEW&quot;&gt;\thttp://addpix.net/viewer.php?file=57638706828854332731.jpg&lt;/a&gt;\n    &lt;a href=&quot;\thttp://addpix.net/viewer.php?file=95517408584649823953.jpg&quot; rel=&quot;nofollow&quot; target=&quot;_NEW&quot;&gt;\thttp://addpix.net/viewer.php?file=95517408584649823953.jpg&lt;/a&gt;\n    &lt;a href=&quot;\thttp://addpix.net/viewer.php?file=48917060319439676993.jpg&quot; rel=&quot;nofollow&quot; target=&quot;_NEW&quot;&gt;\thttp://addpix.net/viewer.php?file=48917060319439676993.jpg&lt;/a&gt;\n    &lt;a href=&quot;\thttp://addpix.net/viewer.php?file=07367959863837982705.jpg&quot; rel=&quot;nofollow&quot; target=&quot;_NEW&quot;&gt;\thttp://addpix.net/viewer.php?file=07367959863837982705.jpg&lt;/a&gt;\n    &lt;a href=&quot;\thttp://addpix.net/viewer.php?file=30471562096125546598.jpg&quot; rel=&quot;nofollow&quot; target=&quot;_NEW&quot;&gt;\thttp://addpix.net/viewer.php?file=30471562096125546598.jpg&lt;/a&gt;\n    &lt;a href=&quot;\thttp://addpix.net/viewer.php?file=76544477104069106990.jpg&quot; rel=&quot;nofollow&quot; target=&quot;_NEW&quot;&gt;\thttp://addpix.net/viewer.php?file=76544477104069106990.jpg&lt;/a&gt;","torrent":{"xt":"urn:btih:045f33498dd78ceca6eee99766824695ee0c6c22","amp;dn":"R.I.P.D.2013.Xvid.CAMRIP-RUTOR","amp;tr":["udp%3A%2F%2Ftracker.openbittorrent.com%3A80","udp%3A%2F%2Fopen.demonii.com%3A1337","udp%3A%2F%2Ftracker.coppersurfer.tk%3A6969","udp%3A%2F%2Fexodus.desync.com%3A6969"],"infoHash":"045f33498dd78ceca6eee99766824695ee0c6c22","infoHashBuffer":{"type":"Buffer","data":[4,95,51,73,141,215,140,236,166,238,233,151,102,130,70,149,238,12,108,34]},"announce":[],"urlList":[]}}